<svg width="20" height="20" viewBox="0 0 20 20" fill="none" xmlns="http://www.w3.org/2000/svg">
<path fill-rule="evenodd" clip-rule="evenodd" d="M5.97405 4.24638C6.1774 2.76836 7.44669 1.66675 8.94634 1.66675H11.0522C12.5518 1.66675 13.8211 2.76836 14.0245 4.24639L14.2512 5.89451H16.526L17.4966 16.5966C17.5406 17.0819 17.1564 17.5001 16.6666 17.5001H3.3334C2.8436 17.5001 2.45942 17.0819 2.50344 16.5966L3.47412 5.89451H5.7473L5.97405 4.24638ZM6.75662 5.89451H13.2419L13.0337 4.38127C12.8981 3.39592 12.0519 2.66151 11.0522 2.66151H8.94634C7.94657 2.66151 7.10038 3.39592 6.96481 4.38127L6.75662 5.89451ZM3.51578 16.5053L4.38796 6.88927H15.6122L16.4842 16.5053H3.51578Z" fill="#C9C9C9"/>
</svg>
