<svg width="20" height="20" viewBox="0 0 20 20" fill="none" xmlns="http://www.w3.org/2000/svg">
<path fill-rule="evenodd" clip-rule="evenodd" d="M9.28785 3.83915C7.54438 2.05362 4.71807 2.05362 2.9746 3.83915C1.23112 5.62469 1.23112 8.51967 2.9746 10.3052L10.0003 17.5L17.0261 10.3057C18.7695 8.52015 18.7695 5.62517 17.0261 3.83963C15.2826 2.05409 12.4563 2.05409 10.7128 3.83963L10.0003 4.5693L9.28785 3.83915ZM16.3106 9.60701C16.3106 9.607 16.3106 9.60703 16.3106 9.60701C17.6747 8.20998 17.6747 5.93527 16.3106 4.53826C14.9595 3.15455 12.7794 3.15455 11.4283 4.53826L10.0001 6.00092L8.57236 4.53778C8.57229 4.5377 8.57244 4.53786 8.57236 4.53778C7.22124 3.15431 5.04111 3.15415 3.69008 4.53778C2.32596 5.93481 2.32596 8.20955 3.69008 9.60659L10.0003 16.0687L16.3106 9.60701Z" fill="#C9C9C9"/>
</svg>
