<svg width="24" height="24" viewBox="0 0 24 24" fill="none" xmlns="http://www.w3.org/2000/svg">
<path fill-rule="evenodd" clip-rule="evenodd" d="M11.145 4.60699C9.05286 2.46434 5.66129 2.46434 3.56912 4.60699C1.47696 6.74963 1.47696 10.2236 3.56912 12.3663L12 21L20.4309 12.3668C22.523 10.2242 22.523 6.7502 20.4309 4.60755C18.3387 2.46491 14.9471 2.46491 12.855 4.60755L12 5.48316L11.145 4.60699ZM19.5724 11.5284C19.5724 11.5284 19.5723 11.5284 19.5724 11.5284C21.2092 9.85197 21.2092 7.12233 19.5723 5.44591C17.951 3.78546 15.3349 3.78546 13.7136 5.44591L11.9997 7.2011L10.2864 5.44534C10.2864 5.44525 10.2865 5.44543 10.2864 5.44534C8.66509 3.78517 6.04894 3.78498 4.42771 5.44534C2.79076 7.12178 2.79076 9.85146 4.42771 11.5279L12 19.2824L19.5724 11.5284Z" fill="#B0B0B0"/>
</svg>
