<svg width="89" height="14" viewBox="0 0 89 14" fill="none" xmlns="http://www.w3.org/2000/svg">
<path d="M5.52412 13.9968C4.39786 14.0313 3.28091 13.7902 2.27762 13.2959C1.41651 12.8492 0.645187 12.2578 0 11.5497L2.40283 9.72012C2.7248 10.277 3.18461 10.7486 3.74137 11.093C4.27066 11.4103 4.88287 11.5757 5.50623 11.5698C5.82029 11.576 6.13277 11.5254 6.42741 11.4204C6.67765 11.3294 6.9074 11.1929 7.10414 11.0183C7.28632 10.8595 7.42899 10.6632 7.5215 10.4439C7.61109 10.2243 7.65759 9.99055 7.65864 9.75458C7.66596 9.49025 7.57622 9.23191 7.40524 9.02506C7.2223 8.81415 6.99853 8.63954 6.7464 8.51094C6.44626 8.356 6.1319 8.22812 5.80733 8.12895C5.44959 8.01693 5.08588 7.90492 4.71026 7.7929C4.45401 7.70495 4.1969 7.61452 3.94032 7.52427C3.71936 7.44655 3.49858 7.36889 3.27929 7.29315C2.81373 7.12707 2.37813 6.89155 1.98844 6.59522C1.60472 6.29868 1.2873 5.93034 1.05534 5.51242C0.799948 5.00993 0.677075 4.45454 0.697595 3.8954C0.692872 3.36541 0.812086 2.8412 1.04639 2.36167C1.28086 1.88642 1.61478 1.46301 2.0272 1.11803C2.46512 0.753031 2.97092 0.47137 3.51779 0.287975C4.12271 0.0875183 4.7593 -0.00967851 5.39891 0.000759707C5.91683 -0.00478381 6.43378 0.0453094 6.94018 0.150112C7.37121 0.24282 7.79017 0.38154 8.18929 0.563701C8.56297 0.728607 8.91601 0.933844 9.24164 1.17547C9.55723 1.4208 9.85598 1.6856 10.136 1.96818L7.9657 3.55648C7.69414 3.14248 7.31495 2.80408 6.86574 2.57484C6.41653 2.34561 5.91292 2.2335 5.40487 2.24965C4.87378 2.21456 4.34861 2.37466 3.93515 2.69771C3.77326 2.83541 3.64436 3.00536 3.55736 3.19579C3.47037 3.38622 3.42737 3.59259 3.43133 3.80062C3.42311 4.04947 3.50536 4.29328 3.66386 4.48993C3.83838 4.69303 4.05197 4.86174 4.29289 4.98681C4.58736 5.14066 4.89568 5.26852 5.21407 5.36881L6.32009 5.73357C6.79708 5.88292 7.27904 6.0543 7.76596 6.24769C8.23894 6.43667 8.68239 6.68799 9.08364 6.99445C9.47987 7.30512 9.80646 7.69012 10.0436 8.12607C10.3002 8.63253 10.426 9.19122 10.4103 9.75458C10.4083 10.2992 10.2943 10.838 10.0748 11.3399C9.85524 11.8418 9.53458 12.2967 9.13134 12.6784C8.68911 13.0877 8.16874 13.4106 7.59901 13.6291C6.93945 13.8827 6.23419 14.0077 5.52412 13.9968Z" fill="#C9C9C9"/>
<path d="M17.1775 13.9968C16.0513 14.0313 14.9343 13.7902 13.931 13.2959C13.0607 12.8331 12.2809 12.2276 11.6266 11.5066L14.0711 9.72012C14.3922 10.2776 14.8522 10.7494 15.4097 11.093C15.9376 11.411 16.549 11.5764 17.1716 11.5698C17.4856 11.576 17.7981 11.5254 18.0927 11.4204C18.3438 11.3293 18.5745 11.1928 18.7725 11.0183C18.9537 10.8588 19.0962 10.6626 19.1898 10.4439C19.2785 10.2241 19.3239 9.99038 19.324 9.75459C19.3321 9.49061 19.2435 9.2323 19.0736 9.02506C18.8899 8.81482 18.6663 8.64032 18.4147 8.51094C18.1133 8.35652 17.798 8.22867 17.4727 8.12895C17.1179 8.01694 16.7512 7.90492 16.3786 7.79291C15.8986 7.64356 15.4216 7.47984 14.9416 7.30751C14.4712 7.13767 14.0315 6.89727 13.6389 6.59522C13.2549 6.29967 12.9383 5.93107 12.7087 5.51242C12.4534 5.00993 12.3305 4.45454 12.351 3.8954C12.3463 3.36541 12.4655 2.8412 12.6998 2.36167C12.9332 1.88655 13.2661 1.46312 13.6776 1.11803C14.1162 0.753935 14.6218 0.472377 15.1682 0.287977C15.7721 0.0875074 16.4077 -0.00969456 17.0464 0.000762251C17.5643 -0.00478127 18.0812 0.045312 18.5876 0.150114C19.0205 0.243053 19.4414 0.381757 19.8427 0.563704C20.2155 0.732663 20.5666 0.942781 20.8891 1.18983C21.204 1.43596 21.5027 1.7007 21.7834 1.98255L19.6102 3.57085C19.3393 3.15687 18.9607 2.81842 18.5119 2.58916C18.0632 2.35989 17.56 2.2478 17.0523 2.26402C16.52 2.22643 15.993 2.38677 15.5796 2.71207C15.4177 2.84977 15.2888 3.01972 15.2018 3.21015C15.1148 3.40058 15.0718 3.60695 15.0758 3.81498C15.0676 4.06383 15.1498 4.30764 15.3083 4.50429C15.4829 4.70739 15.6964 4.87611 15.9374 5.00118C16.2318 5.15503 16.5401 5.28288 16.8585 5.38317L17.9735 5.73358C18.4505 5.88293 18.9315 6.0543 19.4164 6.24769C19.8897 6.436 20.3333 6.68737 20.7341 6.99445C21.1311 7.30432 21.4579 7.68949 21.694 8.12608C21.9506 8.63253 22.0764 9.19122 22.0607 9.75459C22.0606 10.2934 21.948 10.8267 21.7298 11.3228C21.5109 11.8318 21.1874 12.2929 20.7788 12.6784C20.3377 13.0877 19.8183 13.4106 19.2494 13.6291C18.5908 13.8824 17.8866 14.0073 17.1775 13.9968Z" fill="#C9C9C9"/>
<path d="M33.2431 2.60311H26.7739V5.77971H33.2431V8.20668H26.7739V13.8102H24.1386V0.176144H33.2431V2.60311Z" fill="#C9C9C9"/>
<path d="M39.0534 11.6303L39.9477 10.9553C40.3383 11.5507 40.8827 12.0382 41.5276 12.37C42.1724 12.7017 42.8957 12.8665 43.6265 12.8481C45.4957 12.8481 46.9297 11.7394 46.9297 10.0477C46.9297 8.2502 45.2686 7.7161 43.4792 7.14075L43.4178 7.121C41.5307 6.54657 39.5423 5.8113 39.5423 3.53943C39.5423 1.59499 41.331 0.176144 43.6355 0.176144C45.5315 0.176144 46.8044 0.885565 47.7197 1.99996L46.87 2.63183C46.1337 1.62945 45.1171 1.10385 43.6623 1.10385C41.9839 1.10385 40.6811 2.10336 40.6811 3.53943C40.6811 5.18619 42.1974 5.67895 43.8799 6.22573C43.9581 6.25115 44.0366 6.27667 44.1154 6.30244C46.0413 6.94006 48.0416 7.66671 48.0416 10.0362C48.0416 12.1099 46.2291 13.7988 43.6444 13.7988C42.7541 13.8227 41.871 13.6378 41.0713 13.2601C40.2715 12.8823 39.579 12.323 39.0534 11.6303Z" fill="#C9C9C9"/>
<path fill-rule="evenodd" clip-rule="evenodd" d="M64.0943 3.20519C63.3169 4.32692 62.9022 5.64561 62.9028 6.99442C62.9036 8.8018 63.6492 10.5349 64.9757 11.8129C66.3022 13.091 68.1011 13.8093 69.9771 13.81C71.3771 13.8106 72.7459 13.4111 73.9102 12.6621C75.0745 11.9131 75.9821 10.8482 76.5181 9.6022C77.0541 8.35616 77.1946 6.98496 76.9216 5.66203C76.6486 4.33911 75.9745 3.1239 74.9845 2.17015C73.9946 1.21639 72.7332 0.566938 71.3601 0.303937C69.9869 0.0409354 68.5637 0.176206 67.2704 0.692637C65.977 1.20907 64.8717 2.08346 64.0943 3.20519ZM74.1952 2.92344C75.3158 4.00313 75.9454 5.46751 75.9454 6.99442C75.9454 8.52133 75.3158 9.9857 74.1952 11.0654C73.0745 12.1451 71.5545 12.7516 69.9697 12.7516C68.3848 12.7516 66.8648 12.1451 65.7442 11.0654C64.6235 9.9857 63.9939 8.52133 63.9939 6.99442C63.9939 5.46751 64.6235 4.00313 65.7442 2.92344C66.8648 1.84376 68.3848 1.23719 69.9697 1.23719C71.5545 1.23719 73.0745 1.84376 74.1952 2.92344Z" fill="#C9C9C9"/>
<path fill-rule="evenodd" clip-rule="evenodd" d="M79.2575 0.357055H83.9618C86.9996 0.357055 89 2.30437 89 4.86633C89 7.42829 86.9996 9.39284 83.9618 9.39284H80.2771V13.6293H79.2575V0.357055ZM80.2771 1.26178V8.47088H83.9529C86.4541 8.47088 88.0013 6.88258 88.0013 4.87208C88.0013 2.80126 86.466 1.26753 83.9529 1.26753L80.2771 1.26178Z" fill="#C9C9C9"/>
<path d="M59.4774 0.357055H60.5715V13.6293H59.4774V7.49435H51.5147V13.6293H50.4206V0.357055H51.5147V6.49484H59.4774V0.357055Z" fill="#C9C9C9"/>
</svg>
