<svg width="28" height="28" viewBox="0 0 28 28" fill="none" xmlns="http://www.w3.org/2000/svg">
<path fill-rule="evenodd" clip-rule="evenodd" d="M17.5719 18.7062C15.9568 20.1117 13.8542 20.9615 11.555 20.9615C6.46185 20.9615 2.33301 16.7914 2.33301 11.6474C2.33301 6.50333 6.46185 2.33325 11.555 2.33325C16.6482 2.33325 20.7771 6.50333 20.7771 11.6474C20.7771 13.9663 19.938 16.0874 18.5497 17.7176L24.2878 23.2982C24.5629 23.5658 24.5712 24.008 24.3062 24.2859C24.0413 24.5638 23.6034 24.5722 23.3283 24.3046L17.5719 18.7062ZM19.3938 11.6474C19.3938 16.0198 15.8842 19.5644 11.555 19.5644C7.22583 19.5644 3.71631 16.0198 3.71631 11.6474C3.71631 7.27493 7.22583 3.73037 11.555 3.73037C15.8842 3.73037 19.3938 7.27493 19.3938 11.6474Z" fill="#111111"/>
</svg>
