<svg width="20" height="20" viewBox="0 0 20 20" fill="none" xmlns="http://www.w3.org/2000/svg">
<path fill-rule="evenodd" clip-rule="evenodd" d="M12.5519 13.3617C11.3983 14.3657 9.89641 14.9726 8.25415 14.9726C4.61616 14.9726 1.66699 11.994 1.66699 8.31969C1.66699 4.64537 4.61616 1.66675 8.25415 1.66675C11.8921 1.66675 14.8413 4.64537 14.8413 8.31969C14.8413 9.97609 14.242 11.4911 13.2504 12.6556L17.349 16.6417C17.5455 16.8328 17.5514 17.1487 17.3622 17.3472C17.1729 17.5457 16.8602 17.5517 16.6636 17.3605L12.5519 13.3617ZM13.8532 8.31969C13.8532 11.4429 11.3464 13.9747 8.25415 13.9747C5.16186 13.9747 2.65507 11.4429 2.65507 8.31969C2.65507 5.19652 5.16186 2.66469 8.25415 2.66469C11.3464 2.66469 13.8532 5.19652 13.8532 8.31969Z" fill="#C9C9C9"/>
</svg>
